<svg id="svg" version="1.1" xmlns="http://www.w3.org/2000/svg" xmlns:xlink="http://www.w3.org/1999/xlink" width="400" height="56.19834710743802" viewBox="0, 0, 400,56.19834710743802"><g id="svgg"><path id="path0" d="M23.441 1.674 C 15.201 3.828,9.258 11.493,9.242 19.985 C 9.230 26.307,10.206 28.141,20.277 40.732 L 28.083 50.491 28.748 49.813 C 30.338 48.194,43.631 31.276,44.613 29.623 C 53.070 15.378,39.507 -2.527,23.441 1.674 M166.491 16.233 L 166.491 22.549 164.980 21.510 C 156.804 15.886,148.213 25.906,151.017 37.797 C 152.856 45.597,160.745 48.923,165.947 44.089 C 166.892 43.212,167.092 43.315,167.092 44.678 L 167.092 45.680 170.248 45.680 L 173.403 45.680 173.403 27.799 L 173.403 9.917 169.947 9.917 L 166.491 9.917 166.491 16.233 M258.152 16.233 L 258.152 22.568 256.875 21.696 C 248.366 15.883,239.562 26.018,242.690 38.026 C 244.686 45.691,252.891 49.024,257.531 44.053 C 258.352 43.173,258.740 43.429,258.748 44.853 L 258.753 45.680 261.911 45.680 L 265.069 45.680 264.991 27.874 L 264.914 10.068 261.533 9.983 L 258.152 9.898 258.152 16.233 M376.559 27.799 L 376.559 45.680 379.865 45.680 L 383.171 45.680 383.178 41.998 L 383.186 38.317 384.410 37.020 C 385.083 36.306,385.703 35.790,385.786 35.874 C 385.870 35.957,387.314 38.164,388.997 40.778 L 392.055 45.530 395.877 45.614 C 397.980 45.660,399.699 45.614,399.699 45.512 C 399.699 45.410,397.627 42.262,395.093 38.516 C 392.560 34.770,390.394 31.546,390.280 31.351 C 390.157 31.140,391.897 28.917,394.586 25.850 C 397.068 23.020,399.098 20.644,399.098 20.570 C 399.098 20.496,397.307 20.436,395.116 20.437 L 391.134 20.439 387.378 24.926 C 385.312 27.394,383.520 29.422,383.396 29.432 C 383.272 29.443,383.171 25.056,383.171 19.684 L 383.171 9.917 379.865 9.917 L 376.559 9.917 376.559 27.799 M73.237 11.912 C 73.122 12.027,73.028 19.672,73.028 28.901 L 73.028 45.680 83.997 45.680 L 94.966 45.680 94.966 42.975 L 94.966 40.270 87.606 40.270 L 80.246 40.270 80.168 26.071 L 80.090 11.871 76.769 11.786 C 74.942 11.740,73.353 11.796,73.237 11.912 M279.189 14.576 L 279.189 17.431 284.298 17.431 L 289.406 17.431 289.406 31.555 L 289.406 45.680 292.863 45.680 L 296.319 45.680 296.319 31.555 L 296.319 17.431 301.578 17.431 L 306.837 17.431 306.837 14.576 L 306.837 11.721 293.013 11.721 L 279.189 11.721 279.189 14.576 M30.133 13.337 C 36.121 15.140,37.055 23.184,31.629 26.223 C 28.144 28.174,23.694 26.859,21.893 23.345 C 19.072 17.844,24.242 11.564,30.133 13.337 M106.018 20.580 C 95.425 23.496,94.555 41.545,104.823 45.387 C 112.797 48.371,120.281 43.955,121.454 35.573 C 122.894 25.292,115.387 18.001,106.018 20.580 M132.301 20.582 C 128.425 21.672,126.062 23.936,125.461 27.136 L 125.252 28.249 128.601 28.249 C 131.526 28.249,131.971 28.183,132.118 27.724 C 133.497 23.409,139.444 24.434,139.444 28.986 L 139.444 30.353 136.814 30.358 C 128.958 30.374,124.883 33.215,124.910 38.658 C 124.943 45.040,132.498 48.486,138.338 44.782 C 140.070 43.684,139.931 43.684,140.150 44.778 L 140.331 45.680 143.794 45.680 C 145.699 45.680,147.258 45.619,147.258 45.544 C 147.258 45.470,147.055 44.630,146.807 43.678 C 146.468 42.376,146.356 40.189,146.356 34.852 C 146.356 27.017,146.147 25.690,144.574 23.518 C 142.568 20.748,136.702 19.345,132.301 20.582 M196.854 20.616 C 193.093 21.627,190.233 24.551,190.233 27.385 L 190.233 28.249 193.477 28.249 L 196.720 28.249 197.008 27.297 C 198.207 23.326,204.358 24.961,204.358 29.251 L 204.358 30.272 200.676 30.434 C 193.060 30.770,189.624 33.365,189.640 38.768 C 189.659 44.974,197.856 48.583,203.178 44.728 C 203.858 44.235,204.441 43.876,204.475 43.930 C 204.509 43.983,204.696 44.399,204.891 44.853 L 205.246 45.680 208.695 45.680 L 212.145 45.680 211.666 44.403 C 211.289 43.397,211.146 41.304,210.996 34.560 C 210.779 24.851,210.711 24.553,208.212 22.414 C 205.775 20.328,200.836 19.546,196.854 20.616 M226.531 20.718 C 225.751 21.023,224.567 21.704,223.901 22.232 L 222.690 23.191 222.685 22.189 C 222.677 20.492,222.495 20.404,219.209 20.499 L 216.228 20.586 216.150 33.133 L 216.072 45.680 219.531 45.680 L 222.990 45.680 222.990 36.695 L 222.990 27.711 224.036 26.793 C 225.904 25.152,228.824 25.128,230.278 26.741 L 231.104 27.658 231.104 36.669 L 231.104 45.680 234.560 45.680 L 238.017 45.680 238.013 36.589 C 238.009 25.456,237.688 23.799,235.132 21.691 C 233.192 20.093,229.266 19.648,226.531 20.718 M318.681 20.563 C 318.170 20.785,317.267 21.467,316.674 22.077 L 315.596 23.188 315.390 21.812 L 315.183 20.436 312.062 20.436 L 308.941 20.436 308.941 33.058 L 308.941 45.680 312.246 45.680 L 315.552 45.680 315.552 37.537 C 315.552 27.359,315.866 26.747,321.079 26.747 L 322.988 26.747 323.200 23.751 C 323.317 22.103,323.327 20.615,323.221 20.445 C 322.947 20.002,319.781 20.084,318.681 20.563 M332.081 20.615 C 328.762 21.498,326.303 23.681,325.612 26.360 C 325.116 28.286,325.055 28.249,328.731 28.249 L 331.957 28.249 332.244 27.297 C 333.384 23.523,339.094 24.650,339.349 28.700 L 339.444 30.203 335.838 30.397 C 328.196 30.808,324.869 33.312,324.869 38.650 C 324.869 43.368,328.813 46.626,334.019 46.208 C 335.763 46.068,338.690 44.910,339.140 44.183 C 339.484 43.627,339.844 43.864,340.045 44.778 L 340.243 45.680 343.790 45.680 L 347.338 45.680 346.861 44.403 C 346.485 43.395,346.350 41.347,346.220 34.711 C 346.063 26.664,346.025 26.233,345.351 24.865 C 343.450 21.005,337.625 19.139,332.081 20.615 M358.016 20.678 C 351.148 23.125,348.153 32.652,351.867 40.244 C 356.258 49.223,370.999 47.785,372.527 38.229 L 372.729 36.965 369.528 36.965 L 366.326 36.965 366.159 37.791 C 365.620 40.462,361.801 41.757,359.470 40.061 C 356.635 37.997,356.365 29.475,359.047 26.675 C 361.171 24.458,365.309 25.672,366.082 28.740 L 366.418 30.073 369.460 29.988 L 372.502 29.902 372.427 28.457 C 372.119 22.485,364.495 18.370,358.016 20.678 M112.387 26.439 C 116.449 29.332,115.228 39.900,110.735 40.743 C 106.795 41.482,104.417 38.567,104.464 33.058 C 104.517 26.875,108.420 23.615,112.387 26.439 M164.197 25.959 C 166.312 26.843,166.491 27.412,166.491 33.226 C 166.491 39.175,166.261 39.794,163.774 40.539 C 159.179 41.916,156.322 37.491,157.459 30.755 C 158.187 26.434,160.831 24.553,164.197 25.959 M255.857 25.959 C 257.971 26.843,258.152 27.413,258.152 33.217 L 258.152 38.404 257.307 39.308 C 254.874 41.912,250.850 41.045,249.533 37.632 C 246.974 30.999,250.840 23.863,255.857 25.959 M139.444 36.637 C 139.444 40.593,135.003 42.769,132.348 40.114 C 129.791 37.557,132.581 34.347,137.415 34.286 L 139.444 34.260 139.444 36.637 M204.351 36.439 C 204.338 40.518,199.619 42.834,197.087 40.002 C 194.619 37.242,197.258 34.368,202.329 34.291 L 204.358 34.260 204.351 36.439 M339.531 36.547 C 339.693 40.488,334.678 42.822,332.250 39.937 C 329.883 37.124,332.599 34.233,337.491 34.360 L 339.444 34.410 339.531 36.547 M14.876 47.344 C 0.028 48.835,-0.944 52.295,12.923 54.295 C 17.323 54.929,33.638 55.184,39.193 54.705 C 58.059 53.078,57.915 48.572,38.953 47.140 L 33.885 46.758 33.284 47.496 L 32.684 48.234 34.298 48.460 C 41.819 49.510,43.576 49.984,43.576 50.962 C 43.576 53.303,24.744 54.331,16.009 52.467 C 10.065 51.199,12.649 49.416,21.705 48.535 L 23.725 48.339 23.248 47.610 C 22.680 46.744,21.290 46.699,14.876 47.344 " stroke="none" fill="#000000" fill-rule="evenodd"></path></g></svg>